<?xml version="1.0" encoding="UTF-8" standalone="no"?><!DOCTYPE svg PUBLIC "-//W3C//DTD SVG 1.1//EN" "http://www.w3.org/Graphics/SVG/1.1/DTD/svg11.dtd"><svg width="100%" height="100%" viewBox="0 0 324 67" version="1.1" xmlns="http://www.w3.org/2000/svg" xmlns:xlink="http://www.w3.org/1999/xlink" xml:space="preserve" xmlns:serif="http://www.serif.com/" style="fill-rule:evenodd;clip-rule:evenodd;stroke-linejoin:round;stroke-miterlimit:2;"><path d="M302.5,3.333c-1.574,-2.098 -4.044,-3.333 -6.667,-3.333c-32.311,0 -242.805,0 -287.5,0c-4.602,0 -8.333,3.731 -8.333,8.333c0,12.809 0,37.192 -0,50c0,4.603 3.731,8.334 8.333,8.334c44.695,-0 255.189,-0 287.5,-0c2.623,-0 5.093,-1.235 6.667,-3.334c5.011,-6.68 16.182,-21.576 20.625,-27.5c1.111,-1.481 1.111,-3.518 0,-5c-4.443,-5.924 -15.614,-20.819 -20.625,-27.5Z" style="fill:#ebebeb;"/></svg>