<?xml version="1.0" encoding="UTF-8" standalone="no"?>
<!DOCTYPE svg PUBLIC "-//W3C//DTD SVG 1.1//EN" "http://www.w3.org/Graphics/SVG/1.1/DTD/svg11.dtd">
<svg width="100%" height="100%" viewBox="0 0 100 100" version="1.1" xmlns="http://www.w3.org/2000/svg" xmlns:xlink="http://www.w3.org/1999/xlink" xml:space="preserve" xmlns:serif="http://www.serif.com/" style="fill-rule:evenodd;clip-rule:evenodd;stroke-linejoin:round;stroke-miterlimit:2;">
    <path d="M33.6,75.656C33.942,75.656 34.261,75.833 34.444,76.125C36.281,79.047 46.182,94.801 49.155,99.531C49.339,99.823 49.658,100 50,100C50.342,100 50.661,99.823 50.845,99.531C53.818,94.801 63.719,79.047 65.556,76.125C65.739,75.833 66.058,75.656 66.4,75.656C70.306,75.656 93.839,75.656 99,75.656C99.552,75.656 100,75.205 100,74.648C100,66.34 100,9.316 100,1.009C100,0.452 99.552,-0 99,0C89.219,0 10.781,0 1,0C0.448,-0 0,0.452 0,1.009C0,9.316 0,66.34 0,74.648C0,75.205 0.448,75.656 1,75.656C6.161,75.656 29.694,75.656 33.6,75.656ZM21.328,27.741C26.847,27.741 31.328,32.261 31.328,37.828C31.328,43.396 26.847,47.916 21.328,47.916C15.809,47.916 11.328,43.396 11.328,37.828C11.328,32.261 15.809,27.741 21.328,27.741ZM50,27.741C55.519,27.741 60,32.261 60,37.828C60,43.396 55.519,47.916 50,47.916C44.481,47.916 40,43.396 40,37.828C40,32.261 44.481,27.741 50,27.741ZM78.672,27.741C84.191,27.741 88.672,32.261 88.672,37.828C88.672,43.396 84.191,47.916 78.672,47.916C73.153,47.916 68.672,43.396 68.672,37.828C68.672,32.261 73.153,27.741 78.672,27.741Z" style="fill:white;"/>
</svg>
