<?xml version="1.0" encoding="UTF-8" standalone="no"?>
<!DOCTYPE svg PUBLIC "-//W3C//DTD SVG 1.1//EN" "http://www.w3.org/Graphics/SVG/1.1/DTD/svg11.dtd">
<svg width="100%" height="100%" viewBox="0 0 100 100" version="1.1" xmlns="http://www.w3.org/2000/svg" xmlns:xlink="http://www.w3.org/1999/xlink" xml:space="preserve" xmlns:serif="http://www.serif.com/" style="fill-rule:evenodd;clip-rule:evenodd;stroke-linejoin:round;stroke-miterlimit:2;">
    <g transform="matrix(1,0,0,1,-521.764,-234.178)">
        <g transform="matrix(6.25,1.53081e-15,-1.53081e-15,6.25,-1928.24,-1590.82)">
            <path d="M408,307.84C408,307.928 407.928,308 407.84,308C406.275,308 393.725,308 392.16,308C392.118,308 392.077,307.983 392.047,307.953C392.017,307.923 392,307.882 392,307.84L392,292.16C392,292.072 392.072,292 392.16,292C393.185,292 398.815,292 399.84,292C399.928,292 400,292.072 400,292.16C400,292.535 400,293.465 400,293.84C400,293.882 399.983,293.923 399.953,293.953C399.923,293.983 399.882,294 399.84,294C398.99,294 395.01,294 394.16,294C394.118,294 394.077,294.017 394.047,294.047C394.017,294.077 394,294.118 394,294.16C394,295.478 394,304.522 394,305.84C394,305.928 394.072,306 394.16,306L405.84,306C405.882,306 405.923,305.983 405.953,305.953C405.983,305.923 406,305.882 406,305.84C406,304.99 406,301.01 406,300.16C406,300.118 406.017,300.077 406.047,300.047C406.077,300.017 406.118,300 406.16,300C406.535,300 407.465,300 407.84,300C407.928,300 408,300.072 408,300.16C408,301.185 408,306.815 408,307.84ZM404.663,294.137C404.686,294.114 404.692,294.079 404.68,294.049C404.668,294.019 404.638,294 404.606,294C404.082,294 402.643,294 402.16,294C402.118,294 402.077,293.983 402.047,293.953C402.017,293.923 402,293.882 402,293.84C402,293.465 402,292.535 402,292.16C402,292.118 402.017,292.077 402.047,292.047C402.077,292.017 402.118,292 402.16,292C403.01,292 406.99,292 407.84,292C407.882,292 407.923,292.017 407.953,292.047C407.983,292.077 408,292.118 408,292.16L408,297.84C408,297.882 407.983,297.923 407.953,297.953C407.923,297.983 407.882,298 407.84,298C407.465,298 406.535,298 406.16,298C406.118,298 406.077,297.983 406.047,297.953C406.017,297.923 406,297.882 406,297.84L406,295.394C406,295.362 405.981,295.333 405.951,295.32C405.921,295.308 405.886,295.315 405.863,295.338C404.935,296.266 399.563,301.638 398.714,302.487C398.684,302.517 398.643,302.534 398.601,302.534C398.558,302.534 398.517,302.517 398.487,302.487C398.258,302.258 397.742,301.742 397.513,301.513C397.483,301.483 397.466,301.442 397.466,301.4C397.466,301.357 397.483,301.316 397.513,301.286C398.362,300.437 403.734,295.065 404.663,294.137Z" style="fill:white;"/>
        </g>
    </g>
</svg>
