<?xml version="1.0" encoding="UTF-8" standalone="no"?>
<!DOCTYPE svg PUBLIC "-//W3C//DTD SVG 1.1//EN" "http://www.w3.org/Graphics/SVG/1.1/DTD/svg11.dtd">
<svg width="100%" height="100%" viewBox="0 0 100 100" version="1.1" xmlns="http://www.w3.org/2000/svg" xmlns:xlink="http://www.w3.org/1999/xlink" xml:space="preserve" xmlns:serif="http://www.serif.com/" style="fill-rule:evenodd;clip-rule:evenodd;stroke-linejoin:round;stroke-miterlimit:2;">
    <path d="M100,99C100,99.552 99.552,100 99,100C89.219,100 10.781,100 1,100C0.735,100 0.48,99.895 0.293,99.707C0.105,99.52 -0,99.265 0,99L0,1C-0,0.448 0.448,0 1,0C7.404,0 42.596,0 49,0C49.552,0 50,0.448 50,1C50,3.342 50,9.158 50,11.5C50,11.765 49.895,12.02 49.707,12.207C49.52,12.395 49.265,12.5 49,12.5C43.687,12.5 18.813,12.5 13.5,12.5C13.235,12.5 12.98,12.605 12.793,12.793C12.605,12.98 12.5,13.235 12.5,13.5C12.5,21.735 12.5,78.265 12.5,86.5C12.5,87.052 12.948,87.5 13.5,87.5L86.5,87.5C86.765,87.5 87.02,87.395 87.207,87.207C87.395,87.02 87.5,86.765 87.5,86.5C87.5,81.187 87.5,56.313 87.5,51C87.5,50.735 87.605,50.48 87.793,50.293C87.98,50.105 88.235,50 88.5,50C90.842,50 96.658,50 99,50C99.552,50 100,50.448 100,51C100,57.404 100,92.596 100,99ZM79.141,13.354C79.284,13.211 79.327,12.996 79.25,12.809C79.172,12.622 78.99,12.5 78.788,12.5C75.515,12.5 66.516,12.5 63.5,12.5C63.235,12.5 62.98,12.395 62.793,12.207C62.605,12.02 62.5,11.765 62.5,11.5C62.5,9.158 62.5,3.342 62.5,1C62.5,0.735 62.605,0.48 62.793,0.293C62.98,0.105 63.235,-0 63.5,0C68.813,0 93.687,0 99,0C99.265,-0 99.52,0.105 99.707,0.293C99.895,0.48 100,0.735 100,1L100,36.5C100,36.765 99.895,37.02 99.707,37.207C99.52,37.395 99.265,37.5 99,37.5C96.658,37.5 90.842,37.5 88.5,37.5C88.235,37.5 87.98,37.395 87.793,37.207C87.605,37.02 87.5,36.765 87.5,36.5C87.5,33.484 87.5,24.487 87.5,21.215C87.5,21.012 87.378,20.83 87.191,20.753C87.005,20.675 86.789,20.718 86.646,20.861C80.845,26.663 47.27,60.237 41.961,65.547C41.773,65.734 41.519,65.84 41.254,65.84C40.989,65.84 40.734,65.734 40.547,65.547C39.115,64.115 35.887,60.887 34.455,59.455C34.267,59.267 34.162,59.013 34.162,58.747C34.162,58.482 34.267,58.228 34.455,58.04C39.764,52.731 73.339,19.156 79.141,13.354Z" style="fill:white;"/>
</svg>
