<?xml version="1.0" encoding="UTF-8" standalone="no"?>
<!DOCTYPE svg PUBLIC "-//W3C//DTD SVG 1.1//EN" "http://www.w3.org/Graphics/SVG/1.1/DTD/svg11.dtd">
<svg width="100%" height="100%" viewBox="0 0 100 100" version="1.1" xmlns="http://www.w3.org/2000/svg" xmlns:xlink="http://www.w3.org/1999/xlink" xml:space="preserve" xmlns:serif="http://www.serif.com/" style="fill-rule:evenodd;clip-rule:evenodd;stroke-linejoin:round;stroke-miterlimit:2;">
    <path d="M67.966,34.811C67.471,35.01 66.908,34.787 66.682,34.302C64.496,29.63 54.071,7.34 50.91,0.582C50.744,0.227 50.39,0 50,0C49.61,-0 49.256,0.227 49.09,0.582C45.929,7.34 35.504,29.63 33.318,34.302C33.092,34.787 32.529,35.01 32.034,34.811C27.569,33.012 7.399,24.886 1.38,22.461C1.039,22.324 0.651,22.385 0.367,22.619C0.084,22.854 -0.05,23.226 0.017,23.589C2.056,34.538 12.684,91.615 14.091,99.173C14.18,99.653 14.596,100 15.08,100C22.53,100 77.47,100 84.92,100C85.404,100 85.82,99.653 85.909,99.173C87.316,91.615 97.944,34.538 99.983,23.589C100.05,23.226 99.916,22.854 99.633,22.619C99.349,22.385 98.961,22.324 98.62,22.461C92.601,24.886 72.431,33.012 67.966,34.811ZM50,46.371C56.986,46.371 62.657,52.083 62.657,59.119C62.657,66.155 56.986,71.868 50,71.868C43.014,71.868 37.343,66.155 37.343,59.119C37.343,52.083 43.014,46.371 50,46.371Z" style="fill:white;"/>
</svg>
