<?xml version="1.0" encoding="UTF-8" standalone="no"?>
<!DOCTYPE svg PUBLIC "-//W3C//DTD SVG 1.1//EN" "http://www.w3.org/Graphics/SVG/1.1/DTD/svg11.dtd">
<svg width="100%" height="100%" viewBox="0 0 800 600" version="1.1" xmlns="http://www.w3.org/2000/svg" xmlns:xlink="http://www.w3.org/1999/xlink" xml:space="preserve" xmlns:serif="http://www.serif.com/" style="fill-rule:evenodd;clip-rule:evenodd;stroke-linejoin:round;stroke-miterlimit:2;">
    <rect x="-2.265" y="-3.439" width="812.486" height="609.684" style="fill:rgb(13,13,13);"/>
    <path d="M389.848,349.705C389.716,349.896 389.498,350.007 389.267,350C389.037,349.992 388.826,349.867 388.707,349.667C387.09,346.947 382.335,338.946 381.104,336.875C380.934,336.589 380.585,336.468 380.277,336.588C378.189,337.401 370.545,340.378 367.925,341.399C367.721,341.478 367.491,341.453 367.307,341.331C367.124,341.209 367.011,341.006 367.003,340.784L365.008,286.109C365.01,285.92 365.007,285.73 365,285.541C365.195,265.879 380.79,250 400.001,250C419.33,250 435,266.077 435,285.908L432.998,340.784C432.99,341.006 432.877,341.209 432.694,341.331C432.51,341.453 432.28,341.478 432.076,341.399C429.456,340.378 421.812,337.401 419.724,336.588C419.416,336.468 419.067,336.589 418.897,336.875C417.666,338.946 412.911,346.947 411.294,349.667C411.175,349.867 410.964,349.992 410.734,350C410.503,350.007 410.285,349.896 410.153,349.705C408.257,346.937 402.398,338.389 400.559,335.706C400.432,335.521 400.223,335.411 400.001,335.411C399.778,335.411 399.569,335.521 399.442,335.706C397.603,338.389 391.744,346.937 389.848,349.705ZM385.355,277.286C390.039,277.286 393.841,281.124 393.841,285.852C393.841,290.58 390.039,294.418 385.355,294.418C380.672,294.418 376.869,290.58 376.869,285.852C376.869,281.124 380.672,277.286 385.355,277.286ZM414.646,277.286C419.329,277.286 423.132,281.124 423.132,285.852C423.132,290.58 419.329,294.418 414.646,294.418C409.962,294.418 406.16,290.58 406.16,285.852C406.16,281.124 409.962,277.286 414.646,277.286Z" style="fill:white;"/>
    <rect x="350" y="250" width="100" height="100" style="fill:none;"/>
</svg>
