<?xml version="1.0" encoding="UTF-8" standalone="no"?>
<!DOCTYPE svg PUBLIC "-//W3C//DTD SVG 1.1//EN" "http://www.w3.org/Graphics/SVG/1.1/DTD/svg11.dtd">
<svg width="100%" height="100%" viewBox="0 0 100 100" version="1.1" xmlns="http://www.w3.org/2000/svg" xmlns:xlink="http://www.w3.org/1999/xlink" xml:space="preserve" xmlns:serif="http://www.serif.com/" style="fill-rule:evenodd;clip-rule:evenodd;stroke-linejoin:round;stroke-miterlimit:2;">
    <path d="M15.365,54.192C15.54,54.104 15.647,53.923 15.64,53.728C15.552,51.314 14.997,36.109 14.997,36.109C14.998,35.92 14.996,35.73 14.989,35.541C15.184,15.879 30.785,0 50.003,0C69.34,0 85.016,16.077 85.016,35.908C85.016,35.908 84.454,51.299 84.366,53.728C84.359,53.923 84.466,54.104 84.64,54.192C93.785,58.804 99.602,65.221 100,72.347C100.004,72.517 99.922,72.677 99.781,72.772C99.641,72.866 99.462,72.883 99.306,72.816C95.218,71.08 90.172,69.47 84.437,68.127C84.291,68.093 84.138,68.126 84.019,68.217C83.9,68.308 83.829,68.447 83.823,68.596C83.691,72.211 83.013,90.784 83.013,90.784C83.005,91.006 82.892,91.209 82.709,91.331C82.525,91.453 82.295,91.478 82.09,91.399C79.47,90.378 71.823,87.401 69.734,86.588C69.425,86.468 69.077,86.589 68.907,86.875C67.675,88.946 62.918,96.947 61.301,99.667C61.182,99.867 60.971,99.992 60.74,100C60.51,100.007 60.291,99.896 60.16,99.705C58.262,96.937 52.401,88.389 50.561,85.706C50.434,85.521 50.226,85.411 50.003,85.411C49.78,85.411 49.571,85.521 49.444,85.706C47.604,88.389 41.743,96.937 39.846,99.705C39.715,99.896 39.496,100.007 39.265,100C39.035,99.992 38.824,99.867 38.705,99.667C37.088,96.947 32.33,88.946 31.099,86.875C30.929,86.589 30.58,86.468 30.272,86.588C28.182,87.401 20.536,90.378 17.915,91.399C17.71,91.478 17.48,91.453 17.297,91.331C17.114,91.209 17,91.006 16.992,90.784C16.992,90.784 16.314,72.212 16.182,68.597C16.177,68.447 16.105,68.308 15.986,68.217C15.868,68.126 15.714,68.093 15.569,68.127C9.833,69.471 4.788,71.082 0.7,72.82C0.543,72.888 0.362,72.871 0.22,72.776C0.078,72.68 -0.005,72.518 0,72.347C0.4,65.221 6.218,58.804 15.365,54.192ZM35.352,27.286C40.037,27.286 43.841,31.124 43.841,35.852C43.841,40.58 40.037,44.418 35.352,44.418C30.666,44.418 26.863,40.58 26.863,35.852C26.863,31.124 30.666,27.286 35.352,27.286ZM64.654,27.286C69.339,27.286 73.143,31.124 73.143,35.852C73.143,40.58 69.339,44.418 64.654,44.418C59.968,44.418 56.164,40.58 56.164,35.852C56.164,31.124 59.968,27.286 64.654,27.286Z" style="fill:white;"/>
</svg>
