<?xml version="1.0" encoding="UTF-8" standalone="no"?>
<!DOCTYPE svg PUBLIC "-//W3C//DTD SVG 1.1//EN" "http://www.w3.org/Graphics/SVG/1.1/DTD/svg11.dtd">
<svg width="100%" height="100%" viewBox="0 0 100 100" version="1.1" xmlns="http://www.w3.org/2000/svg" xmlns:xlink="http://www.w3.org/1999/xlink" xml:space="preserve" xmlns:serif="http://www.serif.com/" style="fill-rule:evenodd;clip-rule:evenodd;stroke-linejoin:round;stroke-miterlimit:2;">
    <g transform="matrix(1,0,0,1,-301.983,-267.593)">
        <g transform="matrix(0.678886,0,0,0.685293,44.105,106.423)">
            <path d="M438.551,380.676C438.357,380.955 438.036,381.117 437.696,381.106C437.356,381.095 437.046,380.912 436.871,380.621C434.49,376.652 427.485,364.977 425.671,361.954C425.421,361.537 424.908,361.36 424.454,361.535C421.377,362.722 410.118,367.066 406.26,368.555C405.958,368.671 405.619,368.635 405.349,368.457C405.079,368.279 404.912,367.982 404.9,367.659L401.963,287.875C401.965,287.599 401.961,287.322 401.95,287.046C402.237,258.354 425.209,235.184 453.506,235.184C481.979,235.184 505.06,258.643 505.06,287.582L502.112,367.659C502.1,367.982 501.933,368.279 501.663,368.457C501.393,368.635 501.054,368.671 500.753,368.555C496.894,367.066 485.635,362.722 482.558,361.535C482.105,361.36 481.591,361.537 481.341,361.954C479.527,364.977 472.523,376.652 470.141,380.621C469.967,380.912 469.656,381.095 469.316,381.106C468.977,381.117 468.655,380.955 468.461,380.676C465.667,376.637 457.037,364.164 454.328,360.248C454.142,359.978 453.834,359.817 453.506,359.817C453.178,359.817 452.871,359.978 452.684,360.248C449.975,364.164 441.345,376.637 438.551,380.676ZM431.934,275C438.833,275 444.434,280.601 444.434,287.5C444.434,294.399 438.833,300 431.934,300C425.035,300 419.434,294.399 419.434,287.5C419.434,280.601 425.035,275 431.934,275ZM475.078,275C481.977,275 487.578,280.601 487.578,287.5C487.578,294.399 481.977,300 475.078,300C468.179,300 462.578,294.399 462.578,287.5C462.578,280.601 468.179,275 475.078,275Z" style="fill:white;"/>
        </g>
        <g transform="matrix(0.993754,0,0,1.54167,48.1195,-152.245)">
            <rect x="255.46" y="272.326" width="100.629" height="64.865" style="fill:none;"/>
        </g>
    </g>
</svg>
