<?xml version="1.0" encoding="UTF-8" standalone="no"?>
<!DOCTYPE svg PUBLIC "-//W3C//DTD SVG 1.1//EN" "http://www.w3.org/Graphics/SVG/1.1/DTD/svg11.dtd">
<svg width="100%" height="100%" viewBox="0 0 100 100" version="1.1" xmlns="http://www.w3.org/2000/svg" xmlns:xlink="http://www.w3.org/1999/xlink" xml:space="preserve" xmlns:serif="http://www.serif.com/" style="fill-rule:evenodd;clip-rule:evenodd;stroke-linejoin:round;stroke-miterlimit:2;">
    <path d="M39.848,99.705C39.716,99.896 39.498,100.007 39.267,100C39.037,99.992 38.826,99.867 38.707,99.667C37.09,96.947 32.335,88.946 31.104,86.875C30.934,86.589 30.585,86.468 30.277,86.588C28.189,87.401 20.545,90.378 17.925,91.399C17.721,91.478 17.491,91.453 17.307,91.331C17.124,91.209 17.011,91.006 17.003,90.784L15.008,36.109C15.01,35.92 15.007,35.73 15,35.541C15.195,15.879 30.79,0 50.001,0C69.33,0 85,16.077 85,35.908L82.998,90.784C82.99,91.006 82.877,91.209 82.694,91.331C82.51,91.453 82.28,91.478 82.076,91.399C79.456,90.378 71.812,87.401 69.724,86.588C69.416,86.468 69.067,86.589 68.897,86.875C67.666,88.946 62.911,96.947 61.294,99.667C61.175,99.867 60.964,99.992 60.734,100C60.503,100.007 60.285,99.896 60.153,99.705C58.257,96.937 52.398,88.389 50.559,85.706C50.432,85.521 50.223,85.411 50.001,85.411C49.778,85.411 49.569,85.521 49.442,85.706C47.603,88.389 41.744,96.937 39.848,99.705ZM35.355,27.286C40.039,27.286 43.841,31.124 43.841,35.852C43.841,40.58 40.039,44.418 35.355,44.418C30.672,44.418 26.869,40.58 26.869,35.852C26.869,31.124 30.672,27.286 35.355,27.286ZM64.646,27.286C69.329,27.286 73.132,31.124 73.132,35.852C73.132,40.58 69.329,44.418 64.646,44.418C59.962,44.418 56.16,40.58 56.16,35.852C56.16,31.124 59.962,27.286 64.646,27.286Z" style="fill:white;"/>
    <rect x="0" y="0" width="100" height="100" style="fill:none;"/>
</svg>
