<?xml version="1.0" encoding="UTF-8" standalone="no"?>
<!DOCTYPE svg PUBLIC "-//W3C//DTD SVG 1.1//EN" "http://www.w3.org/Graphics/SVG/1.1/DTD/svg11.dtd">
<svg width="100%" height="100%" viewBox="0 0 60 100" version="1.1" xmlns="http://www.w3.org/2000/svg" xmlns:xlink="http://www.w3.org/1999/xlink" xml:space="preserve" xmlns:serif="http://www.serif.com/" style="fill-rule:evenodd;clip-rule:evenodd;stroke-linejoin:round;stroke-miterlimit:2;">
    <path d="M9.174,8.5C9.174,8.224 8.962,8 8.701,8C7.564,8 4.709,8 3.787,8C3.607,8 3.443,7.893 3.363,7.724C2.836,6.609 0.854,2.423 0.05,0.724C-0.023,0.569 -0.016,0.385 0.071,0.237C0.157,0.09 0.309,-0 0.473,0C6.987,0 53.013,0 59.527,0C59.691,-0 59.843,0.09 59.929,0.237C60.016,0.385 60.023,0.569 59.95,0.724C59.146,2.423 57.164,6.609 56.637,7.724C56.557,7.893 56.393,8 56.213,8C55.291,8 52.436,8 51.299,8C51.038,8 50.826,8.224 50.826,8.5C50.826,12.405 50.826,37.947 50.826,41.043C50.826,41.232 50.726,41.404 50.567,41.489C48.883,42.39 39.517,47.402 37.833,48.303C37.673,48.388 37.573,48.561 37.573,48.749C37.573,49.346 37.573,50.654 37.573,51.251C37.573,51.439 37.673,51.612 37.833,51.697C39.517,52.598 48.883,57.61 50.567,58.511C50.726,58.596 50.826,58.768 50.826,58.957C50.826,62.053 50.826,87.595 50.826,91.5C50.826,91.776 51.038,92 51.299,92C52.436,92 55.291,92 56.213,92C56.393,92 56.557,92.107 56.637,92.276C57.164,93.391 59.146,97.577 59.95,99.276C60.023,99.431 60.016,99.615 59.929,99.763C59.843,99.91 59.691,100 59.527,100C53.013,100 6.987,100 0.473,100C0.309,100 0.157,99.91 0.071,99.763C-0.016,99.615 -0.023,99.431 0.05,99.276C0.854,97.577 2.836,93.391 3.363,92.276C3.443,92.107 3.607,92 3.787,92C4.709,92 7.564,92 8.701,92C8.962,92 9.174,91.776 9.174,91.5C9.174,87.595 9.174,62.053 9.174,58.957C9.174,58.768 9.274,58.596 9.433,58.511C11.117,57.61 20.483,52.598 22.167,51.697C22.327,51.612 22.427,51.439 22.427,51.251C22.427,50.654 22.427,49.346 22.427,48.749C22.427,48.561 22.327,48.388 22.167,48.303C20.483,47.402 11.117,42.39 9.433,41.489C9.274,41.404 9.174,41.232 9.174,41.043C9.174,37.947 9.174,12.405 9.174,8.5ZM46.78,39.031C46.939,38.946 47.04,38.774 47.04,38.585C47.04,35.628 47.04,12.228 47.04,8.5C47.04,8.224 46.828,8 46.566,8C42.764,8 17.236,8 13.434,8C13.172,8 12.96,8.224 12.96,8.5C12.96,12.228 12.96,35.628 12.96,38.585C12.96,38.774 13.061,38.946 13.22,39.031C14.904,39.933 24.27,44.944 25.954,45.845C26.113,45.931 26.213,46.103 26.213,46.291C26.213,47.566 26.213,52.434 26.213,53.709C26.213,53.897 26.113,54.069 25.954,54.155C24.27,55.056 14.904,60.067 13.22,60.969C13.061,61.054 12.96,61.226 12.96,61.415C12.96,64.372 12.96,87.772 12.96,91.5C12.96,91.776 13.172,92 13.434,92C17.236,92 42.764,92 46.566,92C46.828,92 47.04,91.776 47.04,91.5C47.04,87.772 47.04,64.372 47.04,61.415C47.04,61.226 46.939,61.054 46.78,60.969C45.096,60.067 35.73,55.056 34.046,54.155C33.887,54.069 33.787,53.897 33.787,53.709C33.787,52.434 33.787,47.566 33.787,46.291C33.787,46.103 33.887,45.931 34.046,45.845C35.73,44.944 45.096,39.933 46.78,39.031Z" style="fill:white;"/>
    <path d="M31.893,71.693C31.893,71.881 31.994,72.054 32.153,72.139C33.837,73.04 43.203,78.054 44.887,78.955C45.046,79.041 45.146,79.213 45.146,79.401C45.146,80.918 45.146,87.608 45.146,89.5C45.146,89.633 45.096,89.76 45.008,89.854C44.919,89.947 44.798,90 44.673,90C41.135,90 18.865,90 15.327,90C15.202,90 15.081,89.947 14.992,89.854C14.904,89.76 14.854,89.633 14.854,89.5C14.854,87.608 14.854,80.918 14.854,79.401C14.854,79.213 14.954,79.041 15.113,78.955C16.797,78.054 26.163,73.04 27.847,72.139C28.006,72.054 28.107,71.881 28.107,71.693C28.107,68.894 28.107,47.845 28.107,45.046C28.107,44.858 28.006,44.686 27.847,44.6C26.163,43.699 16.797,38.685 15.113,37.784C14.954,37.699 14.854,37.526 14.854,37.338C14.854,35.947 14.854,30.232 14.854,28.5C14.854,28.367 14.904,28.24 14.992,28.146C15.081,28.053 15.202,28 15.327,28C18.865,28 41.135,28 44.673,28C44.798,28 44.919,28.053 45.008,28.146C45.096,28.24 45.146,28.367 45.146,28.5C45.146,30.232 45.146,35.947 45.146,37.338C45.146,37.526 45.046,37.699 44.887,37.784C43.203,38.685 33.837,43.699 32.153,44.6C31.994,44.686 31.893,44.858 31.893,45.046C31.893,47.845 31.893,68.894 31.893,71.693Z" style="fill:rgb(83,101,125);"/>
</svg>
