<?xml version="1.0" encoding="UTF-8" standalone="no"?>
<!DOCTYPE svg PUBLIC "-//W3C//DTD SVG 1.1//EN" "http://www.w3.org/Graphics/SVG/1.1/DTD/svg11.dtd">
<svg width="100%" height="100%" viewBox="0 0 100 100" version="1.1" xmlns="http://www.w3.org/2000/svg" xmlns:xlink="http://www.w3.org/1999/xlink" xml:space="preserve" xmlns:serif="http://www.serif.com/" style="fill-rule:evenodd;clip-rule:evenodd;stroke-linejoin:round;stroke-miterlimit:2;">
    <rect x="0" y="0" width="100" height="100" style="fill:none;"/>
    <path d="M28,8.5C28,8.224 27.776,8 27.5,8C26.3,8 23.284,8 22.309,8C22.12,8 21.946,7.893 21.862,7.724C21.304,6.609 19.211,2.423 18.362,0.724C18.284,0.569 18.293,0.385 18.384,0.237C18.475,0.09 18.636,-0 18.809,0C25.69,0 74.31,0 81.191,0C81.364,-0 81.525,0.09 81.616,0.237C81.707,0.385 81.716,0.569 81.638,0.724C80.789,2.423 78.696,6.609 78.138,7.724C78.054,7.893 77.88,8 77.691,8C76.716,8 73.7,8 72.5,8C72.224,8 72,8.224 72,8.5C72,12.405 72,37.947 72,41.043C72,41.232 71.894,41.404 71.726,41.489C69.947,42.39 60.053,47.402 58.274,48.303C58.106,48.388 58,48.561 58,48.749C58,49.346 58,50.654 58,51.251C58,51.439 58.106,51.612 58.274,51.697C60.053,52.598 69.947,57.61 71.726,58.511C71.894,58.596 72,58.768 72,58.957C72,62.053 72,87.595 72,91.5C72,91.776 72.224,92 72.5,92C73.7,92 76.716,92 77.691,92C77.88,92 78.054,92.107 78.138,92.276C78.696,93.391 80.789,97.577 81.638,99.276C81.716,99.431 81.707,99.615 81.616,99.763C81.525,99.91 81.364,100 81.191,100C74.31,100 25.69,100 18.809,100C18.636,100 18.475,99.91 18.384,99.763C18.293,99.615 18.284,99.431 18.362,99.276C19.211,97.577 21.304,93.391 21.862,92.276C21.946,92.107 22.12,92 22.309,92C23.284,92 26.3,92 27.5,92C27.776,92 28,91.776 28,91.5C28,87.595 28,62.053 28,58.957C28,58.768 28.106,58.596 28.274,58.511C30.053,57.61 39.947,52.598 41.726,51.697C41.894,51.612 42,51.439 42,51.251C42,50.654 42,49.346 42,48.749C42,48.561 41.894,48.388 41.726,48.303C39.947,47.402 30.053,42.39 28.274,41.489C28.106,41.404 28,41.232 28,41.043C28,37.947 28,12.405 28,8.5ZM67.726,39.031C67.894,38.946 68,38.774 68,38.585C68,35.628 68,12.228 68,8.5C68,8.224 67.776,8 67.5,8C63.483,8 36.517,8 32.5,8C32.224,8 32,8.224 32,8.5C32,12.228 32,35.628 32,38.585C32,38.774 32.106,38.946 32.274,39.031C34.053,39.933 43.947,44.944 45.726,45.845C45.894,45.931 46,46.103 46,46.291C46,47.566 46,52.434 46,53.709C46,53.897 45.894,54.069 45.726,54.155C43.947,55.056 34.053,60.067 32.274,60.969C32.106,61.054 32,61.226 32,61.415C32,64.372 32,87.772 32,91.5C32,91.776 32.224,92 32.5,92C36.517,92 63.483,92 67.5,92C67.776,92 68,91.776 68,91.5C68,87.772 68,64.372 68,61.415C68,61.226 67.894,61.054 67.726,60.969C65.947,60.067 56.053,55.056 54.274,54.155C54.106,54.069 54,53.897 54,53.709C54,52.434 54,47.566 54,46.291C54,46.103 54.106,45.931 54.274,45.845C56.053,44.944 65.947,39.933 67.726,39.031Z" style="fill:white;"/>
    <path d="M52,71.693C52,71.881 52.106,72.054 52.274,72.139C54.053,73.04 63.947,78.054 65.726,78.955C65.894,79.041 66,79.213 66,79.401C66,80.918 66,87.608 66,89.5C66,89.633 65.947,89.76 65.854,89.854C65.76,89.947 65.633,90 65.5,90C61.763,90 38.237,90 34.5,90C34.367,90 34.24,89.947 34.146,89.854C34.053,89.76 34,89.633 34,89.5C34,87.608 34,80.918 34,79.401C34,79.213 34.106,79.041 34.274,78.955C36.053,78.054 45.947,73.04 47.726,72.139C47.894,72.054 48,71.881 48,71.693C48,68.894 48,47.845 48,45.046C48,44.858 47.894,44.686 47.726,44.6C45.947,43.699 36.053,38.685 34.274,37.784C34.106,37.699 34,37.526 34,37.338C34,35.947 34,30.232 34,28.5C34,28.367 34.053,28.24 34.146,28.146C34.24,28.053 34.367,28 34.5,28C38.237,28 61.763,28 65.5,28C65.633,28 65.76,28.053 65.854,28.146C65.947,28.24 66,28.367 66,28.5C66,30.232 66,35.947 66,37.338C66,37.526 65.894,37.699 65.726,37.784C63.947,38.685 54.053,43.699 52.274,44.6C52.106,44.686 52,44.858 52,45.046C52,47.845 52,68.894 52,71.693Z" style="fill:rgb(83,101,125);"/>
</svg>
