<?xml version="1.0" encoding="UTF-8" standalone="no"?>
<!DOCTYPE svg PUBLIC "-//W3C//DTD SVG 1.1//EN" "http://www.w3.org/Graphics/SVG/1.1/DTD/svg11.dtd">
<svg width="100%" height="100%" viewBox="0 0 100 100" version="1.1" xmlns="http://www.w3.org/2000/svg" xmlns:xlink="http://www.w3.org/1999/xlink" xml:space="preserve" xmlns:serif="http://www.serif.com/" style="fill-rule:evenodd;clip-rule:evenodd;stroke-linejoin:round;stroke-miterlimit:2;">
    <path d="M100,1C100,0.735 99.895,0.48 99.707,0.293C99.52,0.105 99.265,-0 99,0L1,0C0.735,-0 0.48,0.105 0.293,0.293C0.105,0.48 -0,0.735 0,1L0,99C-0,99.265 0.105,99.52 0.293,99.707C0.48,99.895 0.735,100 1,100L99,100C99.265,100 99.52,99.895 99.707,99.707C99.895,99.52 100,99.265 100,99L100,1ZM57.5,42.5L57.5,13.5C57.5,12.948 57.052,12.5 56.5,12.5C53.773,12.5 46.227,12.5 43.5,12.5C42.948,12.5 42.5,12.948 42.5,13.5C42.5,18.709 42.5,42.5 42.5,42.5L13.5,42.5C12.948,42.5 12.5,42.948 12.5,43.5C12.5,46.227 12.5,53.773 12.5,56.5C12.5,57.052 12.948,57.5 13.5,57.5C18.709,57.5 42.5,57.5 42.5,57.5L42.5,86.5C42.5,87.052 42.948,87.5 43.5,87.5C46.227,87.5 53.773,87.5 56.5,87.5C57.052,87.5 57.5,87.052 57.5,86.5C57.5,81.291 57.5,57.5 57.5,57.5L86.5,57.5C87.052,57.5 87.5,57.052 87.5,56.5C87.5,53.773 87.5,46.227 87.5,43.5C87.5,42.948 87.052,42.5 86.5,42.5C81.291,42.5 57.5,42.5 57.5,42.5Z" style="fill:white;"/>
</svg>
