<?xml version="1.0" encoding="UTF-8" standalone="no"?>
<!DOCTYPE svg PUBLIC "-//W3C//DTD SVG 1.1//EN" "http://www.w3.org/Graphics/SVG/1.1/DTD/svg11.dtd">
<svg width="100%" height="100%" viewBox="0 0 100 100" version="1.1" xmlns="http://www.w3.org/2000/svg" xmlns:xlink="http://www.w3.org/1999/xlink" xml:space="preserve" xmlns:serif="http://www.serif.com/" style="fill-rule:evenodd;clip-rule:evenodd;stroke-linejoin:round;stroke-miterlimit:2;">
    <rect x="0" y="0" width="100" height="100" style="fill:none;"/>
    <path d="M64.625,97.716C63.157,99.179 61.169,100 59.097,100L42.133,100C40.069,100 38.088,99.185 36.621,97.732C33.892,95.027 29.416,90.592 27.154,88.351C26.256,87.462 25.752,86.252 25.752,84.988L25.752,84.988C25.752,83.738 25.225,82.546 24.302,81.703C21.214,78.887 13.995,72.303 10.588,69.195C9.462,68.169 9.031,66.585 9.48,65.13C10.018,63.389 10.731,61.08 11.196,59.576C11.507,58.569 11.533,57.495 11.272,56.474C10.052,51.713 6.364,37.311 4.688,30.767C4.159,28.699 4.673,26.502 6.066,24.885C10.668,19.539 21.175,7.336 25.536,2.27C26.777,0.829 28.585,0 30.486,0L69.109,0C70.986,-0 72.772,0.808 74.012,2.217C78.436,7.245 89.209,19.489 93.888,24.807C95.287,26.397 95.828,28.567 95.34,30.628C93.821,37.035 90.519,50.963 89.455,55.451C89.233,56.386 89.251,57.361 89.506,58.287C89.991,60.047 90.828,63.079 91.407,65.18C91.798,66.599 91.364,68.118 90.282,69.116C87.005,72.136 80.029,78.567 76.941,81.414C75.969,82.31 75.416,83.572 75.416,84.894L75.416,84.895C75.416,86.218 74.889,87.487 73.951,88.422C71.685,90.68 67.312,95.038 64.625,97.716ZM54.256,77.632C54.762,77.632 55.244,77.414 55.578,77.034C55.912,76.653 56.066,76.148 56,75.646C55.671,73.118 55.121,68.895 54.919,67.345C54.868,66.96 54.692,66.603 54.418,66.328C53.742,65.652 52.396,64.307 51.45,63.36C51.173,63.083 50.796,62.927 50.404,62.927C50.011,62.927 49.635,63.083 49.357,63.36C48.411,64.307 47.066,65.652 46.389,66.328C46.115,66.603 45.939,66.96 45.889,67.345C45.687,68.895 45.136,73.118 44.807,75.646C44.742,76.148 44.896,76.653 45.23,77.034C45.564,77.414 46.045,77.632 46.551,77.632L54.256,77.632ZM69.334,41.186C68.892,40.744 68.292,40.496 67.667,40.496C67.042,40.496 66.442,40.744 66,41.187C63.887,43.3 60.266,46.923 58.153,49.037C57.233,49.957 57.233,51.45 58.153,52.37C60.267,54.484 63.89,58.107 66.004,60.221C66.446,60.663 67.045,60.911 67.671,60.911C68.296,60.911 68.895,60.663 69.337,60.221C71.451,58.107 75.074,54.484 77.187,52.37C77.63,51.928 77.878,51.329 77.878,50.704C77.878,50.078 77.629,49.479 77.187,49.037C75.073,46.923 71.448,43.3 69.334,41.186ZM33.545,41.186C33.103,40.744 32.503,40.496 31.878,40.496C31.253,40.496 30.654,40.744 30.212,41.187C28.099,43.3 24.477,46.923 22.364,49.037C21.444,49.957 21.444,51.45 22.364,52.37C24.478,54.484 28.101,58.107 30.215,60.221C30.657,60.663 31.257,60.911 31.882,60.911C32.507,60.911 33.107,60.663 33.549,60.221C35.662,58.107 39.285,54.484 41.399,52.37C41.841,51.928 42.089,51.329 42.089,50.704C42.089,50.078 41.841,49.479 41.399,49.037C39.284,46.923 35.66,43.3 33.545,41.186Z" style="fill:white;"/>
</svg>
