<?xml version="1.0" encoding="UTF-8" standalone="no"?>
<!DOCTYPE svg PUBLIC "-//W3C//DTD SVG 1.1//EN" "http://www.w3.org/Graphics/SVG/1.1/DTD/svg11.dtd">
<svg width="100%" height="100%" viewBox="0 0 100 100" version="1.1" xmlns="http://www.w3.org/2000/svg" xmlns:xlink="http://www.w3.org/1999/xlink" xml:space="preserve" xmlns:serif="http://www.serif.com/" style="fill-rule:evenodd;clip-rule:evenodd;stroke-linejoin:round;stroke-miterlimit:2;">
    <path id="CHECK" d="M0.123,46.143C-0.083,45.806 -0.026,45.371 0.262,45.1C0.549,44.829 0.988,44.796 1.312,45.022C8.904,50.297 27.386,63.14 31.786,66.198C32.336,66.58 33.081,66.511 33.552,66.035C39.972,59.54 82.607,16.406 98.579,0.247C98.88,-0.057 99.362,-0.084 99.694,0.186C100.025,0.455 100.098,0.932 99.861,1.288C85.175,23.383 41.06,89.75 34.525,99.581C34.348,99.848 34.047,100.006 33.727,100C33.407,99.994 33.112,99.826 32.944,99.553C28.591,92.468 6.977,57.295 0.123,46.143Z" style="fill:white;"/>
</svg>
