<?xml version="1.0" encoding="UTF-8" standalone="no"?>
<!DOCTYPE svg PUBLIC "-//W3C//DTD SVG 1.1//EN" "http://www.w3.org/Graphics/SVG/1.1/DTD/svg11.dtd">
<svg width="100%" height="100%" viewBox="0 0 70 100" version="1.1" xmlns="http://www.w3.org/2000/svg" xmlns:xlink="http://www.w3.org/1999/xlink" xml:space="preserve" xmlns:serif="http://www.serif.com/" style="fill-rule:evenodd;clip-rule:evenodd;stroke-linejoin:round;stroke-miterlimit:2;">
    <path d="M24.848,99.705C24.716,99.896 24.498,100.007 24.267,100C24.037,99.992 23.826,99.867 23.707,99.667C22.09,96.947 17.335,88.946 16.104,86.875C15.934,86.589 15.585,86.468 15.277,86.588C13.189,87.401 5.545,90.378 2.925,91.399C2.721,91.478 2.491,91.453 2.307,91.331C2.124,91.209 2.011,91.006 2.003,90.784L0.008,36.109C0.01,35.92 0.007,35.73 0,35.541C0.195,15.879 15.79,-0 35.001,-0C54.33,-0 70,16.077 70,35.908L67.998,90.784C67.99,91.006 67.877,91.209 67.694,91.331C67.51,91.453 67.28,91.478 67.076,91.399C64.456,90.378 56.812,87.401 54.724,86.588C54.416,86.468 54.067,86.589 53.897,86.875C52.666,88.946 47.911,96.947 46.294,99.667C46.175,99.867 45.964,99.992 45.734,100C45.503,100.007 45.285,99.896 45.153,99.705C43.257,96.937 37.398,88.389 35.559,85.706C35.432,85.521 35.223,85.411 35.001,85.411C34.778,85.411 34.569,85.521 34.442,85.706C32.603,88.389 26.744,96.937 24.848,99.705ZM20.355,27.286C25.039,27.286 28.841,31.124 28.841,35.852C28.841,40.58 25.039,44.418 20.355,44.418C15.672,44.418 11.869,40.58 11.869,35.852C11.869,31.124 15.672,27.286 20.355,27.286ZM49.646,27.286C54.329,27.286 58.132,31.124 58.132,35.852C58.132,40.58 54.329,44.418 49.646,44.418C44.962,44.418 41.16,40.58 41.16,35.852C41.16,31.124 44.962,27.286 49.646,27.286Z" style="fill:white;"/>
</svg>
