<?xml version="1.0" encoding="UTF-8" standalone="no"?>
<!DOCTYPE svg PUBLIC "-//W3C//DTD SVG 1.1//EN" "http://www.w3.org/Graphics/SVG/1.1/DTD/svg11.dtd">
<svg width="100%" height="100%" viewBox="0 0 92 100" version="1.1" xmlns="http://www.w3.org/2000/svg" xmlns:xlink="http://www.w3.org/1999/xlink" xml:space="preserve" xmlns:serif="http://www.serif.com/" style="fill-rule:evenodd;clip-rule:evenodd;stroke-linejoin:round;stroke-miterlimit:2;">
    <path d="M60.141,97.716C58.673,99.179 56.685,100 54.613,100L37.65,100C35.585,100 33.604,99.185 32.137,97.732C29.408,95.027 24.932,90.592 22.67,88.351C21.772,87.462 21.268,86.252 21.268,84.988L21.268,84.988C21.268,83.738 20.741,82.546 19.818,81.703C16.73,78.887 9.511,72.303 6.104,69.195C4.978,68.169 4.547,66.585 4.996,65.13C5.534,63.389 6.247,61.08 6.712,59.576C7.023,58.569 7.049,57.495 6.788,56.474C5.568,51.713 1.88,37.311 0.204,30.767C-0.325,28.699 0.189,26.502 1.582,24.885C6.184,19.539 16.691,7.336 21.053,2.27C22.293,0.829 24.101,0 26.002,0L64.625,0C66.502,-0 68.288,0.808 69.528,2.217C73.952,7.245 84.725,19.489 89.404,24.807C90.803,26.397 91.345,28.567 90.856,30.628C89.337,37.035 86.035,50.963 84.971,55.451C84.749,56.386 84.767,57.361 85.022,58.287C85.507,60.047 86.344,63.079 86.923,65.18C87.314,66.599 86.88,68.118 85.798,69.116C82.521,72.136 75.545,78.567 72.457,81.414C71.485,82.31 70.932,83.572 70.932,84.894L70.932,84.895C70.932,86.218 70.405,87.487 69.467,88.422C67.202,90.68 62.828,95.038 60.141,97.716ZM49.772,77.632C50.278,77.632 50.76,77.414 51.094,77.034C51.428,76.653 51.582,76.148 51.516,75.646C51.187,73.118 50.637,68.895 50.435,67.345C50.384,66.96 50.209,66.603 49.934,66.328C49.258,65.652 47.912,64.307 46.966,63.36C46.689,63.083 46.312,62.927 45.92,62.927C45.527,62.927 45.151,63.083 44.873,63.36C43.927,64.307 42.582,65.652 41.905,66.328C41.631,66.603 41.455,66.96 41.405,67.345C41.203,68.895 40.653,73.118 40.323,75.646C40.258,76.148 40.412,76.653 40.746,77.034C41.08,77.414 41.561,77.632 42.068,77.632L49.772,77.632ZM64.85,41.186C64.408,40.744 63.808,40.496 63.183,40.496C62.558,40.496 61.958,40.744 61.516,41.187C59.403,43.3 55.782,46.923 53.669,49.037C52.749,49.957 52.749,51.45 53.669,52.37C55.783,54.484 59.406,58.107 61.52,60.221C61.962,60.663 62.561,60.911 63.187,60.911C63.812,60.911 64.411,60.663 64.853,60.221C66.967,58.107 70.59,54.484 72.704,52.37C73.146,51.928 73.394,51.329 73.394,50.704C73.394,50.078 73.145,49.479 72.703,49.037C70.589,46.923 66.964,43.3 64.85,41.186ZM29.061,41.186C28.619,40.744 28.02,40.496 27.394,40.496C26.769,40.496 26.17,40.744 25.728,41.187C23.615,43.3 19.993,46.923 17.88,49.037C16.96,49.957 16.96,51.45 17.881,52.37C19.994,54.484 23.617,58.107 25.731,60.221C26.173,60.663 26.773,60.911 27.398,60.911C28.023,60.911 28.623,60.663 29.065,60.221C31.178,58.107 34.801,54.484 36.915,52.37C37.357,51.928 37.605,51.329 37.605,50.704C37.605,50.078 37.357,49.479 36.915,49.037C34.8,46.923 31.176,43.3 29.061,41.186Z" style="fill:white;"/>
</svg>
